<svg version="1" xmlns="http://www.w3.org/2000/svg" width="346.667" height="346.667" viewBox="0 0 260.000000 260.000000"><path d="M14.1 3.1c-3.3 1.7-7.3 4.6-8.7 6.4C-.2 16.8 0 13.2.1 130.9c0 80.5.4 109.4 1.2 111.8 2.3 6 7.3 11.9 12.3 14.4l4.9 2.4h223l4.9-2.4c5-2.5 10-8.4 12.3-14.4.8-2.4 1.2-31.3 1.2-111.8.1-117.7.3-114.1-5.3-121.4-1.4-1.8-5.4-4.7-8.7-6.4L239.7 0H20.3l-6.2 3.1zm97.4 87.4c15.1 5.4 23.2 17.4 24.3 36.3 1.5 26.9-11.6 44.7-35.3 48.2-3.8.5-13.9 1-22.2 1H63V87.8l21.8.4c17.5.4 22.7.8 26.7 2.3zm91.5 2V97l-18.2.2-18.3.3v28l15.3.3 15.2.3v8.9h-31.1l.3 15.7.3 15.8 19.8.3 19.7.2v9h-52V88h49v4.5z"/><path d="M75 131.9V167h9.2c20.6 0 28.8-3.6 34.8-15.6 3.5-6.9 3.5-7 3.5-19.9-.1-14.1-.7-16.4-6.3-24.1-2-2.7-5.1-5.2-8.7-7-5.2-2.5-7-2.8-19.1-3.2L75 96.7v35.2z"/></svg>